<?xml version="1.0" standalone="no"?>
<!DOCTYPE svg PUBLIC "-//W3C//DTD SVG 20010904//EN"
 "http://www.w3.org/TR/2001/REC-SVG-20010904/DTD/svg10.dtd">
<svg version="1.0" xmlns="http://www.w3.org/2000/svg"
 width="16.000000pt" height="16.000000pt" viewBox="0 0 16.000000 16.000000"
 preserveAspectRatio="xMidYMid meet">

<g transform="translate(0.000000,16.000000) scale(0.100000,-0.100000)"
fill="#FF8C00" stroke="none">
<path d="M26 134 c-22 -22 -26 -36 -26 -80 l0 -54 53 0 c40 0 59 5 75 20 28
27 37 62 21 92 -29 54 -81 63 -123 22z m103 -10 c19 -18 18 -71 -2 -91 -8 -9
-38 -18 -66 -21 l-51 -5 0 36 c0 20 4 47 10 62 16 43 73 53 109 19z"/>
<path d="M74 101 c14 -5 16 -10 8 -15 -7 -4 -12 -12 -12 -18 0 -7 6 -6 15 2
22 19 18 40 -7 39 -21 0 -21 -1 -4 -8z"/>
</g>
</svg>
